PathFileType	4	(X/Y/Z)	2014001\dynamic\2014001_C3_01.trc
DataRate	CameraRate	NumFrames	NumMarkers	Units	OrigDataRate	OrigDataStartFrame	OrigNumFrames
100.000000	100.000000	4	52	mm	100.000000	0	192
Frame#	Time	L_IAS			L_IPS			R_IPS			R_IAS			L_FTC			L_FLE			L_FME			L_FAX			L_TTC			L_FAL			L_TAM			L_FCC			L_FM1			L_FM2			L_FM5			R_FTC			R_FLE			R_FME			R_FAX			R_TTC			R_FAL			R_TAM			R_FCC			R_FM1			R_FM2			R_FM5			CV7			TV10			SXS			SJN			L_SIA			L_SRS			L_SAA			L_SAE			L_HLE			L_HME			L_UOA			L_RSP			L_UHE			L_HM2			L_HM5			R_SIA			R_SRS			R_SAA			R_SAE			R_HLE			R_HME			R_UOA			R_RSP			R_UHE			R_HM2			R_HM5			
		X1	Y1	Z1	X2	Y2	Z2	X3	Y3	Z3	X4	Y4	Z4	X5	Y5	Z5	X6	Y6	Z6	X7	Y7	Z7	X8	Y8	Z8	X9	Y9	Z9	X10	Y10	Z10	X11	Y11	Z11	X12	Y12	Z12	X13	Y13	Z13	X14	Y14	Z14	X15	Y15	Z15	X16	Y16	Z16	X17	Y17	Z17	X18	Y18	Z18	X19	Y19	Z19	X20	Y20	Z20	X21	Y21	Z21	X22	Y22	Z22	X23	Y23	Z23	X24	Y24	Z24	X25	Y25	Z25	X26	Y26	Z26	X27	Y27	Z27	X28	Y28	Z28	X29	Y29	Z29	X30	Y30	Z30	X31	Y31	Z31	X32	Y32	Z32	X33	Y33	Z33	X34	Y34	Z34	X35	Y35	Z35	X36	Y36	Z36	X37	Y37	Z37	X38	Y38	Z38	X39	Y39	Z39	X40	Y40	Z40	X41	Y41	Z41	X42	Y42	Z42	X43	Y43	Z43	X44	Y44	Z44	X45	Y45	Z45	X46	Y46	Z46	X47	Y47	Z47	X48	Y48	Z48	X49	Y49	Z49	X50	Y50	Z50	X51	Y51	Z51	X52	Y52	Z52	

1	0	336.7058715820314	852.8041992187505	-71.78907775878909	263.9353637695314	889.8064575195317	-250.6292572021486	175.5045776367188	892.6852416992192	-250.7379455566407	94.28150939941409	861.2428588867192	-73.14195251464847	394.1851501464846	763.3111572265627	-141.9688873291016	374.2368469238282	436.7315368652346	1.953078389167787	256.959442138672	433.2082214355471	33.69961166381837	377.0063781738282	376.0680236816407	7.194734573364261	339.2093811035157	383.539031982422	80.51461029052737	348.5476379394532	77.49497985839847	137.1847076416016	266.3027343750001	105.0453643798829	169.0458526611329	297.7880859375001	20.15635299682618	128.9750366210938	301.6379394531251	117.9020996093751	282.5437011718751	359.9439086914064	122.693717956543	275.0339965820314	390.1217041015627	80.46247863769534	240.1098175048829	39.23434829711915	773.5761108398442	-181.4866180419922	87.35916900634768	431.6148071289065	-252.9013214111329	205.5745849609376	417.0928344726565	-236.0220031738282	89.30286407470706	370.6611633300782	-289.3384399414064	134.9668884277344	349.1640625000001	-228.4626312255861	153.6511383056641	75.91464996337893	-398.7298889160159	233.6909027099611	87.16840362548831	-350.4877319335939	214.2384796142579	41.4393997192383	-439.9178466796877	213.1003265380861	21.08554649353028	-256.019012451172	149.3200988769532	30.6382522583008	-253.578826904297	108.6534881591797	17.97484970092774	-318.9199523925782	212.1297302246095	1359.983764648438	-200.9281311035157	208.3762969970704	1131.1162109375	-276.8557434082032	237.4589080810548	1126.255981445313	-39.91444396972658	233.9045410156251	1289.279052734375	-74.65311431884768	295.2164916992189	1170.848754882813	-290.6797180175782	293.5939941406251	1300.441162109375	-259.917205810547	407.9875793457034	1293.02392578125	-203.797332763672	403.4122009277346	1301.246215820313	-160.9647369384766	472.6011962890627	1037.205078125	-263.7796020507814	394.3117370605471	1004.867614746094	-273.1282043457032	438.002624511719	1014.129516601563	-293.8323364257814	477.7141723632815	787.0850219726567	-253.220184326172	528.100769042969	810.8632202148442	-310.5796203613282	488.7817993164065	697.5773925781252	-266.7581787109376	530.008483886719	742.0451660156252	-349.5211791992189	85.27967071533206	1174.757568359375	-250.8326263427736	116.0519943237305	1293.07861328125	-227.962127685547	27.2383327484131	1293.09423828125	-132.8741912841797	52.09943771362308	1297.770629882813	-88.86090850830081	-53.96244812011722	1015.485717773438	-26.95860099792482	14.46657657623292	977.6789550781255	-52.01298522949222	-31.56883049011232	972.8317871093755	-40.54785919189455	1.173253774642945	909.5546264648442	174.3682098388672	-64.23677825927737	872.9854125976567	144.3395996093751	-10.38759899139405	869.393920898438	257.7942199707032	-63.94647598266604	812.8149414062505	193.0445556640626	
2	0.01	337.1499328613282	850.9545898437505	-60.37432098388675	265.2689819335939	887.8388061523442	-239.6844024658204	176.978256225586	890.9884643554692	-240.0572204589845	94.7944030761719	859.155395507813	-62.74104690551761	394.8875732421877	761.471130371094	-130.0508270263672	373.6663818359376	435.7127990722659	14.91342735290528	256.2124938964845	432.451843261719	45.41965103149415	376.3414001464845	374.8707580566407	19.81584930419923	337.993865966797	382.1845092773439	92.92668151855472	346.6716918945314	76.08601379394534	147.3115692138672	264.1993713378907	103.2126007080079	178.9388275146485	295.8400878906251	19.15147018432618	138.301986694336	299.2022399902345	114.9463577270508	292.8275756835939	357.5295410156251	119.6287918090821	285.5937500000001	387.6567687988284	77.73007965087893	250.3909454345704	39.8856544494629	772.3402709960942	-171.9750518798829	87.71804809570315	431.0745239257815	-245.8817443847657	205.9772338867189	416.1351318359377	-229.0884857177736	89.55767059326175	370.5624389648439	-283.1125488281251	135.2259979248047	348.152801513672	-222.563201904297	153.3540344238282	77.56822204589847	-397.7227172851565	233.6126861572267	88.13642120361331	-349.5073242187501	213.8416900634767	43.86251449584962	-439.6270446777346	212.9437561035157	21.19428443908692	-255.8081970214845	149.2252197265626	30.69025039672853	-253.3275146484376	108.7038269042969	18.11056900024415	-318.8229980468751	214.2386016845704	1358.0615234375	-190.2054443359376	209.7069091796876	1129.3505859375	-266.1505432128907	238.7741088867189	1124.20166015625	-29.20512771606447	235.8326110839845	1287.1982421875	-63.87228775024417	296.5299072265626	1168.562866210938	-280.0070800781251	295.3812561035157	1298.263061523438	-249.1843261718751	409.8052368164065	1290.331787109375	-193.3069763183595	405.3067932128909	1298.581665039063	-150.4478607177735	473.8109130859377	1034.44091796875	-253.4631805419923	395.4817199707034	1002.102661132813	-262.5328979492189	439.1193542480471	1011.384033203125	-283.4044189453126	478.8973083496096	784.2824096679692	-242.6382293701173	528.9214477539065	808.0073852539067	-300.3664855957032	490.1327819824221	694.8841552734377	-256.0471801757814	530.584655761719	739.1057128906252	-339.180633544922	86.82975006103518	1173.3095703125	-240.3606872558595	117.9095611572266	1291.63525390625	-217.1399841308595	29.16714286804201	1291.743041992188	-122.068946838379	54.03300476074222	1296.551635742188	-78.16702270507815	-52.88484954833987	1013.943969726563	-17.2755298614502	15.60327816009522	976.0397949218755	-42.12794876098634	-30.50585746765138	971.168334960938	-30.67161750793458	2.989095211029054	909.0739746093755	184.4792175292969	-62.50245285034183	872.2881469726567	154.7970123291016	-8.40449142456055	869.7444458007817	268.1785888671876	-62.06537246704104	812.517456054688	204.2115936279298	
3	0.02	337.6880798339845	849.3810424804692	-48.67433547973636	266.664031982422	886.049194335938	-228.4907379150392	178.5175933837891	889.4032592773442	-229.1151123046876	95.4093933105469	857.0850219726567	-52.07123947143558	395.7218933105471	759.9558715820315	-117.7858200073243	373.2469787597657	434.9680786132815	28.17852020263673	255.6563415527345	431.8915710449221	57.29318618774417	375.8521423339845	373.8968811035157	32.51709747314455	336.8279418945314	380.7258605957032	105.3354110717774	344.9096679687501	74.26955413818362	155.5207672119141	262.124481201172	100.6023254394532	186.925277709961	294.0326538085939	17.97526168823243	145.0853424072266	296.7174682617189	110.2619552612305	301.3316345214845	355.0650634765626	114.9118957519532	294.4349670410157	385.2152404785159	73.75298309326175	258.6400451660157	40.67647171020509	771.1220092773442	-162.2094421386719	88.13309478759768	430.6547851562502	-238.6433258056642	206.4749755859376	415.2777404785159	-221.9691314697267	89.84455108642581	370.5977478027345	-276.6986389160157	135.5200500488282	347.2483215332032	-216.4727630615236	152.9493713378907	79.47759246826175	-396.6172180175784	233.4341583251954	89.33251953125003	-348.4495544433595	213.3470764160157	46.60103225708009	-439.299987792969	212.7543334960939	21.33348083496094	-255.5506134033204	149.1012573242188	30.75990867614748	-253.0347137451173	108.7319412231446	18.2670078277588	-318.6781616210939	216.4458007812501	1356.278198242188	-179.4195861816407	211.1351013183595	1127.664428710938	-255.2577362060548	240.1307525634767	1122.319580078125	-18.34659957885743	237.8090209960939	1285.288330078125	-52.98761749267581	297.9617309570314	1166.38330078125	-269.1494140625001	297.2882690429689	1296.19873046875	-238.3259887695314	411.7356262207034	1287.751708984375	-182.6291809082032	407.2744445800784	1296.040771484375	-139.7468566894532	475.1132507324221	1031.691284179688	-242.696990966797	396.7425842285159	999.389526367188	-251.5878295898439	440.359802246094	1008.649719238282	-272.5595092773439	480.0296325683596	781.475219726563	-231.4503021240236	529.803161621094	805.1188354492192	-289.460174560547	491.5559387207034	692.2139282226565	-244.5658264160157	531.361755371094	736.1016845703127	-328.0387268066407	88.49190521240237	1171.960571289063	-229.8023529052736	119.873275756836	1290.317993164063	-206.2707366943361	31.16332244873048	1290.52783203125	-111.2353286743165	56.02225875854495	1295.409057617188	-67.39271545410159	-51.68208694458011	1012.403747558594	-7.833120822906498	16.83930015563966	974.4885253906255	-32.6178550720215	-29.30353736877443	969.5708007812505	-21.13374137878419	4.926094055175783	908.0620727539067	193.9979705810548	-60.67816162109378	871.2119750976567	164.6584014892579	-6.283996105194095	869.3688964843755	277.9394836425782	-60.04920196533206	811.6655883789067	214.5245666503907	
4	0.03	338.3251953125001	848.1262817382817	-36.69105148315431	268.1056213378907	884.490844726563	-217.0410003662111	180.0978698730469	887.969848632813	-217.8911743164064	96.13429260253912	855.080688476563	-41.10702133178712	396.6905822753909	758.8101806640627	-105.2001419067383	372.9856872558595	434.4993591308596	41.65592575073244	255.2912445068361	431.534851074219	69.23218536376956	375.5576782226564	373.1638488769532	45.287654876709	335.7232360839845	379.2456970214845	117.7181396484376	343.3366699218751	72.17407226562503	162.1643981933594	260.164764404297	97.40610504150396	193.3057403564454	292.4533996582032	16.75689888000489	149.7193756103516	294.2021789550782	104.0895309448243	308.3374023437501	352.580535888672	108.7789154052735	301.8692932128907	382.8679809570314	68.76055908203128	265.1956176757814	41.60702514648439	769.9470214843755	-152.1563110351563	88.58884429931643	430.3906555175784	-231.1905212402345	207.0442504882814	414.5461120605471	-214.6526031494142	90.150260925293	370.8037719726564	-270.1081848144532	135.8306121826172	346.4706115722657	-210.2033691406251	152.4162902832032	81.66839599609378	-395.3962097167971	233.1226501464845	90.78027343750003	-347.2857666015626	212.7384338378907	49.69090652465823	-438.9043884277346	212.5300292968751	21.48540115356446	-255.2606506347657	148.9458923339844	30.83054924011232	-252.7074584960939	108.7291717529297	18.43486022949219	-318.4769287109376	218.7440185546876	1354.66796875	-168.5809936523438	212.6556243896486	1126.082885742188	-244.1685791015626	241.5458831787111	1120.667846679688	-7.32488584518433	239.8330993652345	1283.601318359375	-42.00873947143556	299.5133361816407	1164.33935546875	-258.0979309082032	299.3075256347657	1294.280883789063	-227.3510742187501	413.7722473144534	1285.331909179688	-171.7738800048829	409.3103332519534	1293.674560546875	-128.8739318847657	476.5000305175784	1028.9990234375	-231.4696044921876	398.0820617675784	996.7774047851567	-240.2827911376954	441.7129821777346	1005.97021484375	-261.2842712402345	481.086608886719	778.7101440429692	-219.6504364013673	530.735534667969	802.2418823242192	-277.8450927734376	493.0092468261721	689.6074218750002	-232.3205108642579	532.330749511719	733.0872802734377	-316.088104248047	90.26958465576175	1170.728515625	-219.1494293212892	121.9386978149415	1289.151611328125	-195.3677520751954	33.22096633911134	1289.47412109375	-100.3855361938477	58.0577201843262	1294.37646484375	-56.54951858520511	-50.35345077514651	1010.900939941407	1.368972897529602	18.16389656066895	973.0625610351567	-23.49642181396485	-27.96626853942873	968.0762329101567	-11.94060039520264	6.969789505004886	906.5392456054692	202.9238891601564	-58.77069091796878	869.7639160156255	173.9163055419922	-4.043999671936037	868.2700805664067	287.0727539062501	-57.90938949584964	810.2622680664067	223.9625549316407	
